<?xml version="1.0" encoding="iso-8859-1"?>
<!-- Uploaded to: SVG Repo, www.svgrepo.com, Generator: SVG Repo Mixer Tools -->
<svg version="1.1" id="Layer_1" xmlns="http://www.w3.org/2000/svg" xmlns:xlink="http://www.w3.org/1999/xlink" 
	 viewBox="0 0 512 512" xml:space="preserve">
<path style="fill:#D6E5F6;" d="M295.261,57.079C281.077,23.161,247.46,0,209.595,0s-71.482,23.161-85.666,57.079
	c-43.548,7.629-76.75,45.719-76.75,91.419v46.405c0,12.815,10.388,23.202,23.202,23.202h278.427
	c12.814,0,23.202-10.387,23.202-23.202v-46.405C372.011,102.798,338.809,64.708,295.261,57.079z"/>
<path style="fill:#BCD6F2;" d="M295.261,57.079C281.077,23.161,247.46,0,209.595,0v218.104h139.214
	c12.814,0,23.202-10.387,23.202-23.202v-46.405C372.011,102.798,338.809,64.708,295.261,57.079z"/>
<rect x="70.382" y="194.899" style="fill:#F4D853;" width="278.427" height="293.895"/>
<g>
	<rect x="209.594" y="194.899" style="fill:#E9A440;" width="139.214" height="293.895"/>
	<path style="fill:#E9A440;" d="M348.809,512H70.382c-12.814,0-23.202-10.387-23.202-23.202V194.902
		c0-12.814,10.388-23.202,23.202-23.202h278.427c12.814,0,23.202,10.388,23.202,23.202v293.896
		C372.011,501.613,361.623,512,348.809,512z M93.584,465.595h232.023V218.105H93.584L93.584,465.595L93.584,465.595z"/>
</g>
<path style="fill:#DD512A;" d="M256,419.191c-12.814,0-23.202-10.387-23.202-23.202V287.711c0-12.814,10.388-23.202,23.202-23.202
	s23.202,10.388,23.202,23.202v108.277C279.202,408.804,268.814,419.191,256,419.191z"/>
<path style="fill:#E9A440;" d="M163.191,419.191c-12.814,0-23.202-10.387-23.202-23.202V287.711
	c0-12.814,10.388-23.202,23.202-23.202s23.202,10.388,23.202,23.202v108.277C186.393,408.804,176.005,419.191,163.191,419.191z"/>
<g>
	<path style="fill:#DD512A;" d="M441.618,419.191h-92.809c-12.814,0-23.202-10.387-23.202-23.202V194.902
		c0-12.814,10.388-23.202,23.202-23.202h92.809c12.814,0,23.202,10.388,23.202,23.202v201.086
		C464.82,408.804,454.432,419.191,441.618,419.191z M372.011,372.786h46.405V218.104h-46.405V372.786z"/>
	<path style="fill:#DD512A;" d="M348.809,171.7H209.595v46.405h116.011v247.491H209.595V512h139.214
		c12.814,0,23.202-10.387,23.202-23.202V194.902C372.011,182.09,361.623,171.7,348.809,171.7z"/>
</g>
</svg>